<?xml version="1.0" encoding="UTF-8"?>
<svg version="1.1" xmlns="http://www.w3.org/2000/svg" width="512" height="512">
<path d="M0 0 C2.18917302 -0.00542751 4.37834237 -0.01255368 6.56750488 -0.02124023 C12.48485859 -0.03940158 18.40193185 -0.0324357 24.31929016 -0.01972389 C30.52764614 -0.00955894 36.73597896 -0.01899926 42.94433594 -0.02526855 C54.03451655 -0.03299949 65.12457371 -0.02061073 76.21473455 -0.00023121 C86.24868796 0.01763726 96.28245619 0.01453236 106.31640625 -0.00390625 C117.99804555 -0.02528678 129.67956917 -0.03325352 141.36122513 -0.0214572 C147.53411552 -0.01523832 153.70687865 -0.01434242 159.87976074 -0.02760315 C165.68461225 -0.03920342 171.48911591 -0.03105952 177.29393005 -0.00802612 C179.41746952 -0.00276134 181.54103854 -0.00421432 183.66456604 -0.01307678 C201.31994888 -0.07993738 215.54934679 2.26103466 229.015625 14.76757812 C240.74282194 27.42282663 243.88312737 41.52797254 243.77355957 58.31251526 C243.77817817 59.87023831 243.78453749 61.42795699 243.79246855 62.98566669 C243.80905325 67.23164181 243.80096546 71.47725392 243.78852367 75.72322977 C243.77943074 80.31566319 243.7934638 84.90803649 243.80444336 89.50045776 C243.82218764 98.48309822 243.818407 107.46560463 243.8067928 116.44825024 C243.79774317 123.75095684 243.79654108 131.05362599 243.80088806 138.35633659 C243.80150099 139.39742174 243.80211393 140.43850688 243.80274543 141.51114006 C243.80402439 143.62636035 243.80532124 145.74158064 243.8066358 147.85680091 C243.81802946 167.66977057 243.80494665 187.48266609 243.78343433 207.29562359 C243.76556183 224.28199906 243.76867109 241.26826517 243.78710938 258.25463867 C243.80853298 278.00037956 243.81693371 297.74605556 243.80466032 317.49180645 C243.80338618 319.59874943 243.80212869 321.70569242 243.80088806 323.81263542 C243.79996241 325.3674547 243.79996241 325.3674547 243.79901806 326.95368447 C243.79556983 334.24490652 243.80138207 341.53608728 243.81080627 348.82730293 C243.82204407 357.71666921 243.81894866 366.60589427 243.7976833 375.49524445 C243.78719727 380.02742179 243.7830092 384.55936398 243.79627991 389.09153938 C243.80826038 393.24601211 243.8015489 397.40003324 243.7803697 401.55446541 C243.77592749 403.05158413 243.7781159 404.54874156 243.78787285 406.04583509 C243.88422243 422.0673663 239.55114066 435.01461499 228.453125 446.83007812 C221.14180328 453.70553259 212.72327889 457.46092192 203.265625 460.51757812 C203.22824219 461.65195312 203.19085938 462.78632813 203.15234375 463.95507812 C202.35666353 483.61818928 202.35666353 483.61818928 195.265625 490.51757812 C188.15049004 495.38725224 180.88755071 495.13114654 172.57519531 495.0390625 C170.27041403 495.01762267 167.96874867 495.03892188 165.6640625 495.06445312 C158.07227759 495.08049113 151.65766513 495.07992647 145.265625 490.51757812 C143.20703125 488.29882812 143.20703125 488.29882812 141.828125 486.01757812 C141.11849609 484.88835937 141.11849609 484.88835937 140.39453125 483.73632812 C136.6993903 476.47390578 138.265625 470.25480963 138.265625 461.51757812 C106.585625 461.51757812 74.905625 461.51757812 42.265625 461.51757812 C42.265625 466.79757812 42.265625 472.07757813 42.265625 477.51757812 C40.4506545 484.3237175 38.00834266 488.64043296 32.18359375 492.62695312 C26.06001423 495.59268266 19.2272584 495.11275387 12.57519531 495.0390625 C10.27041403 495.01762267 7.96874867 495.03892188 5.6640625 495.06445312 C-1.92772241 495.08049113 -8.34233487 495.07992647 -14.734375 490.51757812 C-16.79296875 488.29882812 -16.79296875 488.29882812 -18.171875 486.01757812 C-18.88150391 484.88835937 -18.88150391 484.88835937 -19.60546875 483.73632812 C-21.32651419 480.35378899 -21.8511037 477.1735513 -22.05078125 473.40820312 C-22.09267578 472.65410156 -22.13457031 471.9 -22.17773438 471.12304688 C-22.21705078 470.34574219 -22.25636719 469.5684375 -22.296875 468.76757812 C-22.34005859 467.97480469 -22.38324219 467.18203125 -22.42773438 466.36523438 C-22.53340491 464.41619998 -22.63435466 462.46691065 -22.734375 460.51757812 C-23.41242188 460.2984375 -24.09046875 460.07929688 -24.7890625 459.85351562 C-39.92332201 454.69696737 -50.14229924 446.68657779 -58.2265625 432.80273438 C-62.59119497 423.29326312 -63.1673903 414.41428521 -63.12205505 404.09013367 C-63.12623321 402.53571448 -63.13171337 400.98129834 -63.13837487 399.42688781 C-63.15278514 395.17612462 -63.14859862 390.92555604 -63.14120805 386.6747824 C-63.13646767 382.08228288 -63.14899398 377.48982495 -63.15922546 372.89733887 C-63.17640222 363.90795946 -63.17725574 354.91864998 -63.17201256 345.92925843 C-63.16796724 338.62029505 -63.16941872 331.3113523 -63.17476082 324.00238991 C-63.17550924 322.96118702 -63.17625766 321.91998413 -63.17702876 320.84722963 C-63.17856028 318.73185048 -63.18009863 316.61647132 -63.18164373 314.50109217 C-63.19536492 294.67286019 -63.18993394 274.84466769 -63.17845852 255.01643661 C-63.16852836 236.89044198 -63.18146375 218.76454946 -63.20539271 200.63857057 C-63.22979637 182.01218619 -63.23938835 163.38584934 -63.23273998 144.7594493 C-63.22925035 134.30802905 -63.23146286 123.8566873 -63.24899101 113.40527916 C-63.26372889 104.50745824 -63.26432777 95.6097711 -63.2469201 86.71195277 C-63.23842048 82.17561708 -63.23623508 77.6395202 -63.25157166 73.1031971 C-63.26545992 68.94362599 -63.26060284 64.78449736 -63.24133242 60.62495158 C-63.23758471 59.12704921 -63.24045864 57.62911105 -63.25094407 56.13124069 C-63.35470552 40.16236443 -59.52694999 26.68402595 -48.484375 14.76757812 C-34.01884553 1.33299953 -18.78431615 -0.07839567 0 0 Z " fill="#E1E1E1" transform="translate(165.734375,8.482421875)"/>
<path d="M0 0 C75.24 0 150.48 0 228 0 C228.0825 36.50625 228.165 73.0125 228.25 110.625 C228.28641602 122.16033691 228.32283203 133.69567383 228.36035156 145.58056641 C228.37841797 159.64526367 228.37841797 159.64526367 228.3817749 166.22543335 C228.38550793 170.83024778 228.40052318 175.43487854 228.42230225 180.03964233 C228.44970176 185.91034467 228.45797152 191.78077922 228.4522891 197.65153956 C228.45347764 199.80794355 228.46143144 201.96435673 228.47686052 204.12070584 C228.49671942 207.03097557 228.49197489 209.94020133 228.48101807 212.85049438 C228.49849405 214.11959939 228.49849405 214.11959939 228.51632309 215.41434288 C228.46243041 220.73021778 227.62286056 223.84822748 224 228 C219.82276344 231.49065772 215.65153716 231.42909147 210.4287262 231.39440918 C209.56705792 231.40050028 208.70538964 231.40659139 207.8176102 231.41286707 C204.93108848 231.42951251 202.04500714 231.42471905 199.15844727 231.41992188 C197.0886489 231.42726127 195.01885463 231.43584711 192.94906616 231.44558716 C187.32720167 231.46782457 181.70548365 231.47073275 176.08358121 231.46883965 C171.39158286 231.46872006 166.69961568 231.47727939 162.007626 231.48561716 C150.93955184 231.50485896 139.8715531 231.50773208 128.8034668 231.50097656 C117.38182782 231.49433362 105.96051161 231.51720872 94.53893811 231.55429029 C84.73498405 231.58496622 74.93113394 231.59634964 65.12713283 231.59245348 C59.27062095 231.59038396 53.41436024 231.59589695 47.55789375 231.62034607 C42.05104927 231.64257588 36.54473044 231.64076645 31.03788376 231.62041855 C29.01663621 231.61700195 26.99535353 231.62212545 24.97415352 231.63640213 C22.21490587 231.6545475 19.45745043 231.64188097 16.69825745 231.62145996 C15.898155 231.63397781 15.09805256 231.64649566 14.27370459 231.65939283 C10.30028842 231.59633316 7.75284498 231.2079004 4.58135891 228.71115875 C-0.23452734 223.65311274 -0.28739287 219.94728922 -0.24050903 213.09100342 C-0.24222107 212.18323151 -0.24393311 211.27545959 -0.24569702 210.34017944 C-0.24901296 207.28237103 -0.23795131 204.22478066 -0.22705078 201.16699219 C-0.22643827 198.9437727 -0.22670483 196.72055283 -0.2277813 194.49733353 C-0.22823348 188.53469858 -0.2166278 182.57214363 -0.20256042 176.60952759 C-0.19118459 171.01784 -0.19063495 165.42617203 -0.18920898 159.83447266 C-0.17870738 143.47297114 -0.15078516 127.11148457 -0.125 110.75 C-0.08375 74.2025 -0.0425 37.655 0 0 Z " fill="#F1F1F1" transform="translate(142,199)"/>
<path d="M0 0 C0.85758473 -0.00538554 1.71516945 -0.01077108 2.59874159 -0.01631981 C5.4714558 -0.0306237 8.3437108 -0.02348966 11.21644592 -0.01637268 C13.27639131 -0.02207497 15.33633353 -0.02903868 17.39627075 -0.03717041 C22.99128588 -0.0551324 28.58614444 -0.05392771 34.18117976 -0.04822803 C38.8508084 -0.04514061 43.52040677 -0.05122364 48.19003111 -0.05726677 C59.20537201 -0.07132035 70.22063536 -0.06974373 81.23597717 -0.05836487 C92.60304416 -0.04688221 103.96987525 -0.06096002 115.33691114 -0.08776134 C125.09415441 -0.10990642 134.85132357 -0.11655842 144.60859019 -0.11068493 C150.43711498 -0.10731138 156.26548855 -0.10975694 162.09399223 -0.12693596 C167.57451868 -0.14238394 173.05469523 -0.1384732 178.53520775 -0.11963081 C180.54677513 -0.11593902 182.55836831 -0.11907051 184.56991196 -0.1295166 C187.31581189 -0.14268773 190.06054684 -0.13121347 192.80639648 -0.11352539 C193.60260798 -0.1231304 194.39881947 -0.1327354 195.21915859 -0.14263147 C200.39799414 -0.07398175 203.4112991 0.89174458 207.46669006 4.38768005 C225.48138994 34.41217985 210.46669006 74.37339725 210.46669006 109.38768005 C135.22669006 109.38768005 59.98669006 109.38768005 -17.53330994 109.38768005 C-17.53330994 9.38768005 -17.53330994 9.38768005 -13.53330994 3.38768005 C-9.36263602 -0.09455441 -5.21349877 -0.03924312 0 0 Z " fill="#F1F1F1" transform="translate(159.53330993652344,47.61231994628906)"/>
<path d="M0 0 C2.18917302 -0.00542751 4.37834237 -0.01255368 6.56750488 -0.02124023 C12.48485859 -0.03940158 18.40193185 -0.0324357 24.31929016 -0.01972389 C30.52764614 -0.00955894 36.73597896 -0.01899926 42.94433594 -0.02526855 C54.03451655 -0.03299949 65.12457371 -0.02061073 76.21473455 -0.00023121 C86.24868796 0.01763726 96.28245619 0.01453236 106.31640625 -0.00390625 C117.99804555 -0.02528678 129.67956917 -0.03325352 141.36122513 -0.0214572 C147.53411552 -0.01523832 153.70687865 -0.01434242 159.87976074 -0.02760315 C165.68461225 -0.03920342 171.48911591 -0.03105952 177.29393005 -0.00802612 C179.41746952 -0.00276134 181.54103854 -0.00421432 183.66456604 -0.01307678 C201.31994888 -0.07993738 215.54934679 2.26103466 229.015625 14.76757812 C240.74282194 27.42282663 243.88312737 41.52797254 243.77355957 58.31251526 C243.77817817 59.87023831 243.78453749 61.42795699 243.79246855 62.98566669 C243.80905325 67.23164181 243.80096546 71.47725392 243.78852367 75.72322977 C243.77943074 80.31566319 243.7934638 84.90803649 243.80444336 89.50045776 C243.82218764 98.48309822 243.818407 107.46560463 243.8067928 116.44825024 C243.79774317 123.75095684 243.79654108 131.05362599 243.80088806 138.35633659 C243.80150099 139.39742174 243.80211393 140.43850688 243.80274543 141.51114006 C243.80402439 143.62636035 243.80532124 145.74158064 243.8066358 147.85680091 C243.81802946 167.66977057 243.80494665 187.48266609 243.78343433 207.29562359 C243.76556183 224.28199906 243.76867109 241.26826517 243.78710938 258.25463867 C243.80853298 278.00037956 243.81693371 297.74605556 243.80466032 317.49180645 C243.80338618 319.59874943 243.80212869 321.70569242 243.80088806 323.81263542 C243.79996241 325.3674547 243.79996241 325.3674547 243.79901806 326.95368447 C243.79556983 334.24490652 243.80138207 341.53608728 243.81080627 348.82730293 C243.82204407 357.71666921 243.81894866 366.60589427 243.7976833 375.49524445 C243.78719727 380.02742179 243.7830092 384.55936398 243.79627991 389.09153938 C243.80826038 393.24601211 243.8015489 397.40003324 243.7803697 401.55446541 C243.77592749 403.05158413 243.7781159 404.54874156 243.78787285 406.04583509 C243.88422243 422.0673663 239.55114066 435.01461499 228.453125 446.83007812 C221.14180328 453.70553259 212.72327889 457.46092192 203.265625 460.51757812 C203.22824219 461.65195312 203.19085938 462.78632813 203.15234375 463.95507812 C202.35666353 483.61818928 202.35666353 483.61818928 195.265625 490.51757812 C188.15049004 495.38725224 180.88755071 495.13114654 172.57519531 495.0390625 C170.27041403 495.01762267 167.96874867 495.03892188 165.6640625 495.06445312 C158.07227759 495.08049113 151.65766513 495.07992647 145.265625 490.51757812 C143.20703125 488.29882812 143.20703125 488.29882812 141.828125 486.01757812 C141.11849609 484.88835937 141.11849609 484.88835937 140.39453125 483.73632812 C136.6993903 476.47390578 138.265625 470.25480963 138.265625 461.51757812 C106.585625 461.51757812 74.905625 461.51757812 42.265625 461.51757812 C42.265625 466.79757812 42.265625 472.07757813 42.265625 477.51757812 C40.4506545 484.3237175 38.00834266 488.64043296 32.18359375 492.62695312 C26.06001423 495.59268266 19.2272584 495.11275387 12.57519531 495.0390625 C10.27041403 495.01762267 7.96874867 495.03892188 5.6640625 495.06445312 C-1.92772241 495.08049113 -8.34233487 495.07992647 -14.734375 490.51757812 C-16.79296875 488.29882812 -16.79296875 488.29882812 -18.171875 486.01757812 C-18.88150391 484.88835937 -18.88150391 484.88835937 -19.60546875 483.73632812 C-21.32651419 480.35378899 -21.8511037 477.1735513 -22.05078125 473.40820312 C-22.09267578 472.65410156 -22.13457031 471.9 -22.17773438 471.12304688 C-22.21705078 470.34574219 -22.25636719 469.5684375 -22.296875 468.76757812 C-22.34005859 467.97480469 -22.38324219 467.18203125 -22.42773438 466.36523438 C-22.53340491 464.41619998 -22.63435466 462.46691065 -22.734375 460.51757812 C-23.41242188 460.2984375 -24.09046875 460.07929688 -24.7890625 459.85351562 C-39.92332201 454.69696737 -50.14229924 446.68657779 -58.2265625 432.80273438 C-62.59119497 423.29326312 -63.1673903 414.41428521 -63.12205505 404.09013367 C-63.12623321 402.53571448 -63.13171337 400.98129834 -63.13837487 399.42688781 C-63.15278514 395.17612462 -63.14859862 390.92555604 -63.14120805 386.6747824 C-63.13646767 382.08228288 -63.14899398 377.48982495 -63.15922546 372.89733887 C-63.17640222 363.90795946 -63.17725574 354.91864998 -63.17201256 345.92925843 C-63.16796724 338.62029505 -63.16941872 331.3113523 -63.17476082 324.00238991 C-63.17550924 322.96118702 -63.17625766 321.91998413 -63.17702876 320.84722963 C-63.17856028 318.73185048 -63.18009863 316.61647132 -63.18164373 314.50109217 C-63.19536492 294.67286019 -63.18993394 274.84466769 -63.17845852 255.01643661 C-63.16852836 236.89044198 -63.18146375 218.76454946 -63.20539271 200.63857057 C-63.22979637 182.01218619 -63.23938835 163.38584934 -63.23273998 144.7594493 C-63.22925035 134.30802905 -63.23146286 123.8566873 -63.24899101 113.40527916 C-63.26372889 104.50745824 -63.26432777 95.6097711 -63.2469201 86.71195277 C-63.23842048 82.17561708 -63.23623508 77.6395202 -63.25157166 73.1031971 C-63.26545992 68.94362599 -63.26060284 64.78449736 -63.24133242 60.62495158 C-63.23758471 59.12704921 -63.24045864 57.62911105 -63.25094407 56.13124069 C-63.35470552 40.16236443 -59.52694999 26.68402595 -48.484375 14.76757812 C-34.01884553 1.33299953 -18.78431615 -0.07839567 0 0 Z M-40.734375 28.51757812 C-48.53231289 38.96875629 -49.03195293 48.73103006 -49.00852966 61.40080261 C-49.01298598 62.92049606 -49.01830132 64.44018718 -49.02439839 65.95987493 C-49.0385415 70.12390092 -49.04024238 74.28785213 -49.03980148 78.45189869 C-49.04145294 82.94763354 -49.05452554 87.44333787 -49.06599426 91.9390564 C-49.08881735 101.76352196 -49.09676187 111.58796589 -49.10182071 121.41245437 C-49.10508065 127.55015811 -49.1116049 133.6878556 -49.1188221 139.8255558 C-49.13838397 156.82901781 -49.15479078 173.83247401 -49.15769863 190.83594799 C-49.1578862 191.92344527 -49.15807377 193.01094255 -49.15826702 194.13139429 C-49.15863327 196.3358773 -49.15899697 198.54036031 -49.15935814 200.74484333 C-49.15954095 201.83910606 -49.15972376 202.9333688 -49.15991211 204.06079102 C-49.16009266 205.15639382 -49.16027321 206.25199662 -49.16045923 207.38079951 C-49.16400058 225.13187794 -49.19102244 242.88283504 -49.22841 260.6338714 C-49.26651409 278.87146407 -49.28585626 297.10899656 -49.28615814 315.34662992 C-49.28674221 325.58125196 -49.29520188 335.81572923 -49.32415581 346.05031395 C-49.3486977 354.76520634 -49.35593355 363.47990113 -49.34090828 372.19481876 C-49.33375108 376.63803915 -49.33454534 381.08086956 -49.35731888 385.52404594 C-49.37800253 389.59865285 -49.3752219 393.67257229 -49.35444403 397.74717251 C-49.35096699 399.21418576 -49.35578278 400.68124957 -49.37014847 402.1481966 C-49.48711963 414.92520262 -46.88591502 427.06315026 -37.734375 436.51757812 C-26.09389952 447.30324547 -13.66715177 447.0989505 1.34570312 447.03515625 C3.48856582 447.0405818 5.63142479 447.04770688 7.77427673 447.05639648 C13.57385144 447.07458113 19.37314047 447.06758226 25.17271996 447.05488014 C31.25256474 447.04472734 37.33238566 447.05415215 43.41223145 447.0604248 C53.62073135 447.06769455 63.82911536 447.05813109 74.03759766 447.0390625 C85.82674653 447.01729516 97.61561866 447.02434699 109.40476084 447.04636812 C119.54094 447.06454121 129.67703603 447.06707108 139.81322622 447.05661345 C145.86088692 447.05038905 151.90841769 447.04951396 157.95606995 447.0627594 C163.64269986 447.07434497 169.32897422 447.06624241 175.01556587 447.04318237 C177.0980171 447.03790978 179.18049844 447.03938411 181.26293755 447.04823303 C195.80259814 447.38725561 195.80259814 447.38725561 209.265625 442.51757812 C210.35875 441.87820313 211.451875 441.23882812 212.578125 440.58007812 C221.36428645 433.83721003 226.33174866 426.14100172 229.265625 415.51757812 C229.91877268 410.34418945 229.93556125 405.21800661 229.88708496 400.01289368 C229.89142326 398.48674207 229.89794763 396.96059541 229.90644503 395.4344613 C229.92331847 391.27574454 229.90933878 387.1176365 229.88993025 382.95895231 C229.87442472 378.46062911 229.88792517 373.96237673 229.89767456 369.46405029 C229.91216277 360.66652598 229.90000653 351.86923333 229.87856132 343.07173101 C229.85449174 332.81959707 229.85626929 322.56751554 229.85886723 312.31535961 C229.86255315 294.02098278 229.84176709 275.72671478 229.80761719 257.43237305 C229.77451403 239.69211071 229.76036187 221.95196253 229.76660156 204.21166992 C229.77336919 184.87539808 229.77089587 165.53917397 229.75124216 146.20290917 C229.75020268 145.18000154 229.74916319 144.15709391 229.7480922 143.10318908 C229.74600137 141.04893176 229.7438904 138.99467445 229.74175903 136.94041717 C229.73487141 129.79854935 229.73419278 122.65669627 229.73564148 115.51482582 C229.73708277 106.81059843 229.72736105 98.10646396 229.70369512 89.40226737 C229.69185517 84.96354102 229.68469669 80.524944 229.69053268 76.08620262 C229.69572151 72.01947886 229.68695658 67.95302784 229.66725808 63.88635065 C229.66253618 62.41888002 229.66279539 60.95138267 229.66866845 59.4839162 C229.71824982 45.76494624 227.58707775 35.71168888 218.33203125 25.35351562 C206.43360899 13.69524501 192.65945546 13.78636038 177.06030273 13.87060547 C174.93994397 13.86381916 172.81959111 13.85491038 170.69924927 13.84405518 C164.97404063 13.82137736 159.24928551 13.83005022 153.52406955 13.8459506 C147.51457478 13.85866777 141.50511713 13.84685354 135.49562073 13.83901978 C125.40757319 13.82994083 115.3197091 13.84186584 105.23168945 13.86572266 C93.58958443 13.89293775 81.94791723 13.88410961 70.30582279 13.85659063 C60.28588518 13.83385941 50.26607893 13.83071891 40.24612385 13.84378397 C34.2721938 13.85155543 28.29846917 13.85268341 22.32455254 13.83610153 C16.70756658 13.82159741 11.09114213 13.83178719 5.47421646 13.86057281 C3.42001971 13.86715158 1.36577522 13.86534135 -0.68840218 13.85425949 C-17.13239231 13.77376471 -29.18974263 15.57608633 -40.734375 28.51757812 Z " fill="#000000" transform="translate(165.734375,8.482421875)"/>
<path d="M0 0 C1.01331642 -0.00623996 2.02663284 -0.01247993 3.07065582 -0.01890898 C6.47637492 -0.03490224 9.88138459 -0.02220956 13.28710938 -0.00964355 C15.72453226 -0.01506184 18.16195186 -0.02218283 20.59936523 -0.03088379 C26.53855182 -0.04725601 32.47755321 -0.04482345 38.4167347 -0.03323323 C43.24309067 -0.02420413 48.06938996 -0.02297262 52.89575195 -0.02732849 C53.58234469 -0.02794142 54.26893743 -0.02855436 54.976336 -0.02918586 C56.37108296 -0.03046475 57.7658299 -0.0317616 59.16057682 -0.03307623 C72.24288806 -0.04448575 85.32508724 -0.03136253 98.4073801 -0.00987476 C109.63557516 0.0079966 120.86360481 0.00489259 132.09179688 -0.0135498 C145.12689692 -0.03495 158.1618987 -0.04338708 171.19701385 -0.03110075 C172.58666482 -0.02982654 173.9763158 -0.02856905 175.3659668 -0.02732849 C176.04972334 -0.02671139 176.73347989 -0.02609429 177.43795633 -0.02545848 C182.25919863 -0.02200302 187.08037867 -0.02783814 191.90161133 -0.0372467 C198.38917798 -0.04962865 204.87650539 -0.04082857 211.36404419 -0.01766968 C213.74894693 -0.01236815 216.13387591 -0.01392087 218.51876831 -0.02272034 C221.76677765 -0.033602 225.01377446 -0.02000071 228.26171875 0 C229.68758175 -0.01338433 229.68758175 -0.01338433 231.14225006 -0.02703905 C234.89514144 0.01798889 237.41039384 0.10374823 240.71593475 1.95818043 C242.87763723 5.85365992 242.68265486 9.42386414 242.63879395 13.81193542 C242.64815389 15.24086371 242.64815389 15.24086371 242.65770292 16.69865924 C242.67369131 19.89925017 242.66100535 23.09908567 242.6484375 26.29968262 C242.65385618 28.5910639 242.66097741 30.8824417 242.66967773 33.17381287 C242.68794914 39.40547302 242.68082631 45.63686894 242.66816139 51.86853385 C242.65804743 58.38797461 242.66742318 64.90739247 242.67370605 71.42683411 C242.6814566 83.08377024 242.66900455 94.7405857 242.64866871 106.39750282 C242.63081841 116.95610167 242.63388371 127.51452449 242.65234375 138.07312012 C242.67377842 150.33881841 242.68170111 162.60439132 242.6698947 174.87010795 C242.66366286 181.36104132 242.66281522 187.8518536 242.67604065 194.34277916 C242.68761469 200.45037555 242.67954445 206.55764051 242.65646362 212.66520119 C242.65118374 214.90448583 242.65267791 217.14379846 242.66151428 219.3830719 C242.67248219 222.44542695 242.65869002 225.50672723 242.63879395 228.5690155 C242.65217828 229.89132228 242.65217828 229.89132228 242.665833 231.24034232 C242.5612742 239.56583305 239.67424118 246.86699218 233.89871216 252.95089149 C224.39886577 261.3179174 213.2346541 260.21906269 201.32617188 260.15490723 C199.21286263 260.16168937 197.0995593 260.17059584 194.98626709 260.18145752 C189.26721358 260.20418621 183.54861278 260.19544087 177.8295517 260.17956209 C171.83378412 260.16686987 165.83805432 260.17865243 159.84228516 260.18649292 C149.77499459 260.19557978 139.70788766 260.18362674 129.640625 260.15979004 C118.01501562 260.1325808 106.38984474 260.14139563 94.76424599 260.16892207 C84.76817901 260.19163947 74.77224375 260.1948003 64.77615929 260.18172872 C58.81230867 260.17394875 52.84866391 260.17285277 46.88482666 260.18941116 C41.27691454 260.2038948 35.66956569 260.19376254 30.06171417 260.16493988 C28.00829248 260.15834994 25.95482307 260.16019075 23.90142059 260.1712532 C2.35748425 260.27658435 2.35748425 260.27658435 -5.98513794 252.54757118 C-12.81914564 245.59862953 -14.32070199 238.09017577 -14.25682068 228.68927002 C-14.26220622 227.72970563 -14.26759175 226.77014124 -14.27314049 225.78149915 C-14.28739275 222.58178022 -14.28032311 219.38247657 -14.27319336 216.18273926 C-14.27889814 213.88265654 -14.28586281 211.58257665 -14.29399109 209.28250122 C-14.31192015 203.04732715 -14.31075519 196.81229381 -14.3050487 190.57710171 C-14.30195823 185.37278964 -14.30804735 180.16850466 -14.31408745 174.96419644 C-14.32893097 161.99104454 -14.3253196 149.01798084 -14.31322414 136.04483047 C-14.30327985 124.77682265 -14.31625555 113.50897876 -14.34015834 102.24099621 C-14.36452968 90.66485394 -14.37376266 79.08880673 -14.36750561 67.51263738 C-14.36412911 61.01576629 -14.36659784 54.51903085 -14.38375664 48.02217865 C-14.39917402 41.91866201 -14.39532812 35.81546 -14.37645149 29.71195602 C-14.37275198 27.46895027 -14.37591345 25.22592145 -14.38633728 22.98293686 C-14.39945471 19.92781195 -14.38808192 16.87374313 -14.37034607 13.81866455 C-14.37995108 12.92529097 -14.38955608 12.0319174 -14.39945215 11.11147189 C-14.35617973 7.50416855 -14.22192303 5.14395733 -12.45463657 1.95775986 C-8.40586319 -0.31260303 -4.56806663 -0.04287965 0 0 Z M0.13085938 14.50793457 C0.04835937 51.01418457 -0.03414062 87.52043457 -0.11914062 125.13293457 C-0.15555664 136.66827148 -0.19197266 148.2036084 -0.22949219 160.08850098 C-0.24286829 170.41093206 -0.24286829 170.41093206 -0.25091553 180.73336792 C-0.25464855 185.33818235 -0.26966381 189.94281311 -0.29144287 194.5475769 C-0.31884238 200.41827924 -0.32711215 206.28871379 -0.32142973 212.15947413 C-0.32261827 214.31587812 -0.33057207 216.4722913 -0.34600115 218.62864041 C-0.36586005 221.53891014 -0.36111551 224.4481359 -0.35015869 227.35842896 C-0.36180935 228.20449896 -0.37346001 229.05056896 -0.38546371 229.92227745 C-0.32128114 236.25312853 1.49379135 239.67335775 5.85267067 244.35870457 C9.32604064 246.11084256 12.7784936 245.92400162 16.58187866 245.89561462 C17.87309944 245.90369293 17.87309944 245.90369293 19.19040549 245.91193444 C22.08004389 245.92626244 24.96922733 245.91909834 27.85888672 245.9119873 C29.92853668 245.91768838 31.99818349 245.92465162 34.06782532 245.93278503 C39.69389011 245.95076165 45.31979932 245.94953945 50.94588423 245.94384265 C55.64031593 245.94075696 60.33471747 245.94683642 65.02914488 245.9528814 C76.1034397 245.96694014 87.17765739 245.96535442 98.25195312 245.95397949 C109.68091485 245.94249975 121.10964188 245.95656858 132.53857267 245.98337597 C142.34675068 246.00552136 152.15485496 246.01217287 161.96305621 246.00629956 C167.82289473 246.00292567 173.68258283 246.00537365 179.54240036 246.02255058 C185.0532816 246.03799878 190.56381485 246.03408757 196.07468224 246.01524544 C198.09753667 246.01155353 200.12041677 246.01468548 202.1432476 246.02513123 C204.90452555 246.03830171 207.66464488 246.02682856 210.4258728 246.00914001 C211.22665737 246.01874502 212.02744193 246.02835003 212.85249269 246.0382461 C218.04374194 245.96981081 221.0666074 245.01521086 225.13085938 241.50793457 C228.81193477 237.16470652 228.54746095 232.90390071 228.49162292 227.47868347 C228.49419098 226.57005554 228.49675903 225.66142761 228.49940491 224.7252655 C228.50437123 221.6704647 228.48779928 218.6161571 228.47143555 215.56140137 C228.4705166 213.33806022 228.47091692 211.1147182 228.47253132 208.89137745 C228.47320909 202.9329046 228.45581116 196.97461219 228.43470001 191.01618195 C228.41762568 185.42671637 228.41681123 179.83729486 228.41467285 174.24780273 C228.39892568 157.89698941 228.35704228 141.54620972 228.31835938 125.19543457 C228.25648438 88.66855957 228.19460938 52.14168457 228.13085938 14.50793457 C152.89085937 14.50793457 77.65085937 14.50793457 0.13085938 14.50793457 Z " fill="#030303" transform="translate(141.869140625,184.4920654296875)"/>
<path d="M0 0 C0.87053996 -0.00594224 1.74107993 -0.01188449 2.63799989 -0.0180068 C5.54877542 -0.03531998 8.45938585 -0.03839208 11.37020874 -0.04138184 C13.45997466 -0.05064259 15.54973721 -0.0606925 17.63949585 -0.07147217 C23.31331779 -0.09768381 28.98709243 -0.11060319 34.66096544 -0.11949348 C38.20861856 -0.12536142 41.75625884 -0.1335723 45.30390549 -0.14250183 C56.41191313 -0.16984345 67.51989133 -0.18918026 78.62793028 -0.19690561 C91.43507076 -0.20586241 104.24178384 -0.24094085 117.04879439 -0.2989068 C126.95815926 -0.34219508 136.86740412 -0.36231711 146.7768625 -0.36498785 C152.69062836 -0.36708022 158.60399222 -0.37881513 164.51765823 -0.41462708 C170.08448973 -0.44768326 175.65061912 -0.45185452 181.21751404 -0.43434906 C183.25399537 -0.43281327 185.29051519 -0.44142847 187.32690048 -0.46126556 C207.95827431 -0.65036128 207.95827431 -0.65036128 217.23495483 6.28088379 C224.79399042 14.0044229 226.68556237 21.78788369 226.63900757 32.29333496 C226.64930244 33.92383034 226.64930244 33.92383034 226.6598053 35.58726501 C226.6780497 39.16626178 226.67424043 42.74481943 226.66854858 46.32385254 C226.6731101 48.8153345 226.67841558 51.3068152 226.68443298 53.79829407 C226.69450009 59.67948375 226.68840844 65.56051744 226.6771794 71.44170028 C226.66998462 76.13193627 226.68081669 80.82189398 226.70150757 85.51208496 C226.72972067 91.98465496 226.73847529 98.45693374 226.73127937 104.92955971 C226.73112579 107.39637301 226.73720078 109.86319474 226.74957085 112.32997704 C226.76440764 115.77252954 226.75385824 119.21409513 226.73666382 122.65661621 C226.74633179 123.67852051 226.75599976 124.7004248 226.76596069 125.7532959 C226.75612656 126.69106369 226.74629242 127.62883148 226.73616028 128.59501648 C226.73595099 129.40816409 226.73574171 130.2213117 226.73552608 131.05910015 C225.99095229 134.36388816 225.06258377 135.37915768 222.23495483 137.28088379 C218.94730367 137.87457749 215.69893473 137.82010579 212.36581421 137.78881836 C211.35249779 137.79505832 210.33918137 137.80129828 209.29515839 137.80772734 C205.88943929 137.8237206 202.48442962 137.81102792 199.07870483 137.79846191 C196.64128195 137.80388019 194.20386235 137.81100119 191.76644897 137.81970215 C185.82726239 137.83607437 179.888261 137.83364181 173.94907951 137.82205158 C169.12272354 137.81302249 164.29642425 137.81179098 159.47006226 137.81614685 C158.78346952 137.81675978 158.09687678 137.81737271 157.38947821 137.81800422 C155.99473125 137.81928311 154.59998431 137.82057996 153.20523739 137.82189459 C140.12292615 137.83330411 127.04072697 137.82018089 113.9584341 137.79869312 C102.73023905 137.78082176 91.5022094 137.78392577 80.27401733 137.80236816 C67.23891729 137.82376836 54.20391551 137.83220544 41.16880035 137.81991911 C39.77914939 137.8186449 38.38949841 137.81738741 36.99984741 137.81614685 C36.31609087 137.81552975 35.63233432 137.81491265 34.92785788 137.81427684 C30.10661558 137.81082138 25.28543554 137.8166565 20.46420288 137.82606506 C13.97663623 137.83844701 7.48930882 137.82964693 1.00177002 137.80648804 C-1.38313272 137.80118651 -3.7680617 137.80273923 -6.1529541 137.8115387 C-9.40096344 137.82242036 -12.64796025 137.80881907 -15.89590454 137.78881836 C-16.84647987 137.79774125 -17.79705521 137.80666413 -18.77643585 137.81585741 C-25.08327695 137.74018667 -25.08327695 137.74018667 -28.3492794 135.53990173 C-29.95133243 132.98364092 -30.27118206 131.62599021 -30.28643799 128.62866211 C-30.3006076 127.69812012 -30.31477722 126.76757812 -30.32937622 125.80883789 C-30.32194397 124.28776428 -30.32194397 124.28776428 -30.31436157 122.73596191 C-30.32458344 121.66225342 -30.3348053 120.58854492 -30.34533691 119.4822998 C-30.37318007 115.92535203 -30.37120995 112.36917776 -30.36660767 108.81213379 C-30.37438264 106.33552767 -30.3830522 103.85892422 -30.39257812 101.38232422 C-30.40751631 96.18370946 -30.40691305 90.98536624 -30.39639282 85.78674316 C-30.38303407 79.14685338 -30.41856183 72.50793754 -30.46508217 65.86817169 C-30.49466092 60.74806285 -30.49628553 55.62822054 -30.49006271 50.50804138 C-30.49108529 48.06178068 -30.50148831 45.61550431 -30.52168655 43.16932678 C-30.70502086 17.84424776 -30.70502086 17.84424776 -23.76504517 9.28088379 C-16.5327931 2.24129749 -9.93794874 -0.0213409 0 0 Z M-12.76504517 18.28088379 C-30.77974505 48.30538359 -15.76504517 88.26660099 -15.76504517 123.28088379 C59.47495483 123.28088379 134.71495483 123.28088379 212.23495483 123.28088379 C220.04163318 67.3116605 220.04163318 67.3116605 208.23495483 17.28088379 C204.06428092 13.79864933 199.91514367 13.85396061 194.7016449 13.89320374 C193.41526781 13.88512543 193.41526781 13.88512543 192.10290331 13.87688392 C189.23018909 13.86258003 186.35793409 13.86971407 183.48519897 13.87683105 C181.42525359 13.87112877 179.36531137 13.86416506 177.30537415 13.85603333 C171.71035902 13.83807134 166.11550046 13.83927603 160.52046514 13.84497571 C155.8508365 13.84806313 151.18123812 13.84198009 146.51161379 13.83593696 C135.49627289 13.82188338 124.48100954 13.82346 113.46566772 13.83483887 C102.09860074 13.84632152 90.73176965 13.83224371 79.36473376 13.80544239 C69.60749049 13.78329732 59.85032133 13.77664532 50.09305471 13.7825188 C44.26452992 13.78589235 38.43615635 13.7834468 32.60765266 13.76626778 C27.12712621 13.75081979 21.64694967 13.75473053 16.16643715 13.77357292 C14.15486977 13.77726471 12.14327659 13.77413322 10.13173294 13.76368713 C7.385833 13.75051601 4.64109806 13.76199026 1.89524841 13.77967834 C1.09903692 13.77007334 0.30282542 13.76046833 -0.51751369 13.75057226 C-5.69634924 13.81922198 -8.7096542 14.78494831 -12.76504517 18.28088379 Z " fill="#020202" transform="translate(157.76504516601563,33.7191162109375)"/>
<path d="M0 0 C3.71503613 0.69656928 4.710327 1.58872481 7 4.5625 C7.45410156 7.67871094 7.45410156 7.67871094 7.390625 11.296875 C7.37773437 12.59238281 7.36484375 13.88789063 7.3515625 15.22265625 C7.31814366 16.58594824 7.28428391 17.94922949 7.25 19.3125 C7.22992707 20.69138064 7.21167767 22.07028912 7.1953125 23.44921875 C7.14815448 26.82101744 7.08234538 30.19140687 7 33.5625 C7.72590332 33.13316162 8.45180664 32.70382324 9.19970703 32.26147461 C11.90939672 30.66953732 14.62729209 29.0929569 17.3515625 27.52612305 C18.52659769 26.84623966 19.69822149 26.16042333 20.86621094 25.46850586 C22.55004684 24.47240362 24.24758859 23.4995868 25.9453125 22.52734375 C26.96125488 21.9355835 27.97719727 21.34382324 29.02392578 20.73413086 C32.54507358 19.34791361 34.39779 19.52903705 38 20.5625 C39.9375 22.1875 39.9375 22.1875 41 24.5625 C41.00390625 27.921875 41.00390625 27.921875 40 31.5625 C37.60921999 33.49586036 35.67219455 34.7915679 33 36.1875 C32.32316162 36.56575928 31.64632324 36.94401855 30.94897461 37.33374023 C28.97676064 38.43124449 26.98993847 39.49758611 25 40.5625 C23.18650151 41.58155847 21.37377379 42.60199256 19.5625 43.625 C18.37654729 44.27367027 17.18977183 44.92086153 16 45.5625 C18.22839011 47.98928415 20.4742793 49.5502211 23.34375 51.15625 C24.17777344 51.62933594 25.01179688 52.10242188 25.87109375 52.58984375 C26.73863281 53.07582031 27.60617187 53.56179688 28.5 54.0625 C30.22129015 55.0267294 31.94014681 55.99531898 33.65625 56.96875 C34.41744141 57.39478516 35.17863281 57.82082031 35.96289062 58.25976562 C37.97215576 59.54469357 39.48277852 60.72437319 41 62.5625 C41.54068562 66.19281776 41.46379841 67.88464079 39.375 70.9375 C36.28738695 73.05007735 34.70048741 72.89957188 31 72.5625 C28.11572266 71.27734375 28.11572266 71.27734375 25.1640625 69.5 C23.56884766 68.55253906 23.56884766 68.55253906 21.94140625 67.5859375 C20.84699219 66.91820312 19.75257813 66.25046875 18.625 65.5625 C17.50738281 64.89476562 16.38976562 64.22703125 15.23828125 63.5390625 C12.48494813 61.89176918 9.73947171 60.23270837 7 58.5625 C7.01571045 59.45557861 7.0314209 60.34865723 7.04760742 61.26879883 C7.09875439 64.58428756 7.13635812 67.89935675 7.16479492 71.21508789 C7.17987589 72.64972552 7.2003438 74.08431708 7.22631836 75.51879883 C7.26273437 77.58165859 7.27973243 79.64390858 7.29296875 81.70703125 C7.3086792 82.94815674 7.32438965 84.18928223 7.34057617 85.46801758 C7 88.5625 7 88.5625 5.6965332 90.4597168 C2.7474576 92.3766796 0.39217349 92.03859453 -3 91.5625 C-5.71763355 88.92726472 -6.89192328 87.28748564 -7.45410156 83.51635742 C-7.4331543 82.41138916 -7.41220703 81.3064209 -7.390625 80.16796875 C-7.37773437 78.96591797 -7.36484375 77.76386719 -7.3515625 76.52539062 C-7.31804687 75.27951172 -7.28453125 74.03363281 -7.25 72.75 C-7.23195313 71.48478516 -7.21390625 70.21957031 -7.1953125 68.91601562 C-7.14823916 65.79740665 -7.08249094 62.68034027 -7 59.5625 C-14.39051826 63.54160373 -14.39051826 63.54160373 -21.671875 67.71484375 C-22.68765625 68.30394531 -23.7034375 68.89304687 -24.75 69.5 C-25.77609375 70.10714844 -26.8021875 70.71429688 -27.859375 71.33984375 C-31.73770629 72.84969163 -34.01185945 72.64623384 -38 71.5625 C-40.35048538 68.03677193 -40.66397817 66.71236355 -40 62.5625 C-35.28826161 58.01086923 -29.80404037 54.95301298 -24.125 51.75 C-23.24585938 51.24791016 -22.36671875 50.74582031 -21.4609375 50.22851562 C-19.3102325 49.00121114 -17.15661149 47.77938575 -15 46.5625 C-20.94466141 42.50503269 -26.95617227 38.79311876 -33.28710938 35.37695312 C-36.39812944 33.65165754 -37.98552006 32.58421991 -40 29.5625 C-40.4375 26.625 -40.4375 26.625 -40 23.5625 C-37.875 21.125 -37.875 21.125 -35 19.5625 C-30.51446234 19.9073339 -27.42091192 21.18982984 -23.6015625 23.50390625 C-22.62832031 24.08720703 -21.65507812 24.67050781 -20.65234375 25.27148438 C-19.15380859 26.18897461 -19.15380859 26.18897461 -17.625 27.125 C-16.60277344 27.74052734 -15.58054687 28.35605469 -14.52734375 28.99023438 C-12.01296926 30.50590872 -9.5042376 32.03015568 -7 33.5625 C-7.02094727 32.74048096 -7.04189453 31.91846191 -7.06347656 31.0715332 C-7.14673309 27.33948036 -7.19869247 23.60762306 -7.25 19.875 C-7.28351563 18.58142578 -7.31703125 17.28785156 -7.3515625 15.95507812 C-7.36445313 14.70791016 -7.37734375 13.46074219 -7.390625 12.17578125 C-7.41157227 11.02891846 -7.43251953 9.88205566 -7.45410156 8.70043945 C-6.75795117 3.88989051 -4.88305153 0.91557216 0 0 Z " fill="#040404" transform="translate(305,318.4375)"/>
<path d="M0 0 C0.680625 -0.01933594 1.36125 -0.03867188 2.0625 -0.05859375 C4.87508389 0.66156382 5.51609345 1.98491803 7 4.4375 C7.37473011 7.0268631 7.37473011 7.0268631 7.3742218 10.01672363 C7.38123611 11.15235245 7.38825043 12.28798126 7.39547729 13.45802307 C7.38783356 14.69970749 7.38018982 15.94139191 7.37231445 17.22070312 C7.37596512 18.53159409 7.37961578 19.84248505 7.38337708 21.19309998 C7.39277999 24.78609031 7.38336585 28.37880794 7.37004495 31.97177696 C7.35872555 35.73220229 7.36283833 39.49261429 7.36479187 43.25305176 C7.36567469 49.56799777 7.35459697 55.88283641 7.33618164 62.19775391 C7.31501417 69.49821656 7.3115042 76.79852191 7.3177436 84.09900904 C7.32343883 91.12241855 7.31778972 98.14577267 7.30657005 105.16917419 C7.30192617 108.15792363 7.3010493 111.14663917 7.3031559 114.13539124 C7.30538972 118.30844358 7.29092807 122.4812757 7.2746582 126.65429688 C7.27837433 128.5168235 7.27837433 128.5168235 7.28216553 130.41697693 C7.27508072 131.55260574 7.26799591 132.68823456 7.26069641 133.85827637 C7.25864354 134.84493034 7.25659067 135.83158432 7.25447559 136.8481369 C6.98939471 139.54541191 6.46573693 141.17181666 5 143.4375 C2.15916359 144.85791821 0.14522722 144.75202272 -3 144.4375 C-5.683039 142.37231182 -6.85914011 141.17571776 -7.50057125 137.81410885 C-7.50078053 136.81140737 -7.50098982 135.80870588 -7.50120544 134.77561951 C-7.51595665 133.04476608 -7.51595665 133.04476608 -7.53100586 131.27894592 C-7.52133789 130.01698898 -7.51166992 128.75503204 -7.50170898 127.45483398 C-7.50549291 126.10936925 -7.51099356 124.76390841 -7.51808167 123.41845703 C-7.53204298 119.76761676 -7.52086279 116.1172474 -7.50437045 112.46643329 C-7.49052197 108.64681295 -7.49697968 104.82722 -7.50050354 101.00758362 C-7.50320551 94.5942526 -7.48973024 88.18110875 -7.46655273 81.76782227 C-7.43993163 74.35027455 -7.43819948 66.93303956 -7.4499411 59.51546043 C-7.46071441 52.38203706 -7.4545361 45.24872695 -7.44038582 38.11531258 C-7.43462323 35.07827137 -7.43471078 32.04131299 -7.43945122 29.00427055 C-7.44421826 25.4295933 -7.43413118 21.85525923 -7.41249657 18.28064728 C-7.40426428 16.34062338 -7.41078471 14.40055457 -7.41769409 12.46052551 C-7.40778946 11.30944305 -7.39788483 10.1583606 -7.38768005 8.97239685 C-7.38525016 7.97007239 -7.38282026 6.96774794 -7.38031673 5.93505001 C-6.70198729 1.48044269 -4.33801913 0.00821595 0 0 Z " fill="#010101" transform="translate(162,221.5625)"/>
<path d="M0 0 C3.71605581 0.61934263 4.67771551 1.58501302 7 4.5 C7.50120544 7.08007812 7.50120544 7.08007812 7.50170898 10.03125 C7.51108994 11.13919922 7.52047089 12.24714844 7.53013611 13.38867188 C7.51890213 14.58041016 7.50766815 15.77214844 7.49609375 17 C7.49754898 18.22783203 7.49900421 19.45566406 7.50050354 20.72070312 C7.49884368 23.31643039 7.48727292 25.9121674 7.46655273 28.5078125 C7.43761062 32.48479954 7.44594084 36.46045309 7.45898438 40.4375 C7.45274675 42.95833982 7.44435564 45.47917543 7.43359375 48 C7.43652939 49.19173828 7.43946503 50.38347656 7.44248962 51.61132812 C7.42346336 53.27325195 7.42346336 53.27325195 7.40405273 54.96875 C7.39864975 55.94263672 7.39324677 56.91652344 7.38768005 57.91992188 C6.93613985 60.92500039 6.07241689 62.30855066 4 64.5 C2.0625 65.03125 2.0625 65.03125 0 65 C-1.0209375 65.01546875 -1.0209375 65.01546875 -2.0625 65.03125 C-4.85551943 64.26542209 -5.5140818 62.94714773 -7 60.5 C-7.38768005 57.91992188 -7.38768005 57.91992188 -7.40405273 54.96875 C-7.41673691 53.86080078 -7.42942108 52.75285156 -7.44248962 51.61132812 C-7.43955399 50.41958984 -7.43661835 49.22785156 -7.43359375 48 C-7.4388356 46.77216797 -7.44407745 45.54433594 -7.44947815 44.27929688 C-7.45590099 41.68360144 -7.45455801 39.08787692 -7.44604492 36.4921875 C-7.43753232 32.51509959 -7.46630021 28.53944608 -7.49804688 24.5625 C-7.49965884 22.0416671 -7.49908145 19.52083165 -7.49609375 17 C-7.50732773 15.80826172 -7.51856171 14.61652344 -7.53013611 13.38867188 C-7.52075516 12.28072266 -7.51137421 11.17277344 -7.50170898 10.03125 C-7.50145973 8.57041992 -7.50145973 8.57041992 -7.50120544 7.08007812 C-6.64354865 2.66507915 -4.35263589 0.72543931 0 0 Z " fill="#010101" transform="translate(162,72.5)"/>
<path d="M0 0 C11.22 0 22.44 0 34 0 C34 5.61 34 11.22 34 17 C29.72006197 20.20995352 28.86824076 20.38274636 23.80859375 20.3984375 C22.02098633 20.40423828 22.02098633 20.40423828 20.19726562 20.41015625 C18.95654297 20.39855469 17.71582031 20.38695312 16.4375 20.375 C14.57061523 20.39240234 14.57061523 20.39240234 12.66601562 20.41015625 C11.47556641 20.40628906 10.28511719 20.40242188 9.05859375 20.3984375 C7.96861084 20.39505371 6.87862793 20.39166992 5.75561523 20.38818359 C3 20 3 20 0 17 C0 11.39 0 5.78 0 0 Z " fill="#686569" transform="translate(319,469)"/>
<path d="M0 0 C11.22 0 22.44 0 34 0 C34 5.61 34 11.22 34 17 C29.78008943 20.16493293 29.0190043 20.3823549 24.0625 20.3984375 C22.34933594 20.40423828 22.34933594 20.40423828 20.6015625 20.41015625 C19.41304687 20.39855469 18.22453125 20.38695312 17 20.375 C15.21722656 20.39240234 15.21722656 20.39240234 13.3984375 20.41015625 C12.25632813 20.40628906 11.11421875 20.40242188 9.9375 20.3984375 C8.37322266 20.39336182 8.37322266 20.39336182 6.77734375 20.38818359 C4 20 4 20 0 17 C0 11.39 0 5.78 0 0 Z " fill="#686569" transform="translate(159,469)"/>
</svg>
